<svg width="777" height="517" viewBox="0 0 777 517" fill="none" xmlns="http://www.w3.org/2000/svg">
<g id="undraw_color__schemes_wv48 1" clip-path="url(#clip0_7_178)">
<path id="Vector" d="M537.363 286H370.363C366.882 286.104 363.478 284.968 360.756 282.795C360.546 282.634 360.408 282.396 360.373 282.133C360.339 281.871 360.409 281.605 360.57 281.394C360.731 281.184 360.968 281.046 361.231 281.01C361.493 280.975 361.759 281.045 361.97 281.205C364.342 283.114 367.321 284.106 370.363 284H537.363C541.34 283.996 545.153 282.414 547.965 279.602C550.777 276.79 552.359 272.977 552.363 269V167C552.359 163.023 550.777 159.21 547.965 156.398C545.153 153.586 541.34 152.004 537.363 152H370.363C366.386 152.004 362.574 153.586 359.762 156.398C356.95 159.21 355.368 163.023 355.363 167V227C355.363 227.265 355.258 227.52 355.07 227.707C354.883 227.895 354.628 228 354.363 228C354.098 228 353.844 227.895 353.656 227.707C353.469 227.52 353.363 227.265 353.363 227V167C353.368 162.493 355.161 158.172 358.348 154.985C361.535 151.798 365.856 150.005 370.363 150H537.363C541.87 150.005 546.191 151.798 549.378 154.985C552.565 158.172 554.358 162.493 554.363 167V269C554.358 273.507 552.565 277.828 549.378 281.015C546.191 284.202 541.87 285.995 537.363 286Z" fill="#3F3D56"/>
<path id="Vector_2" d="M759.363 344H317.363C317.098 344 316.844 343.895 316.656 343.707C316.469 343.52 316.363 343.265 316.363 343C316.363 342.735 316.469 342.48 316.656 342.293C316.844 342.105 317.098 342 317.363 342H759.363C763.34 341.996 767.153 340.414 769.965 337.602C772.777 334.79 774.359 330.977 774.363 327V17C774.359 13.0231 772.777 9.21043 769.965 6.39836C767.153 3.58629 763.34 2.0045 759.363 2H289.363C285.386 2.0045 281.574 3.58629 278.762 6.39836C275.95 9.21043 274.368 13.0231 274.363 17V219C274.363 219.265 274.258 219.52 274.07 219.707C273.883 219.895 273.628 220 273.363 220C273.098 220 272.844 219.895 272.656 219.707C272.469 219.52 272.363 219.265 272.363 219V17C272.368 12.4929 274.161 8.17181 277.348 4.98479C280.535 1.79777 284.856 0.00507387 289.363 0H759.363C763.87 0.00507387 768.191 1.79777 771.378 4.98479C774.565 8.17181 776.358 12.4929 776.363 17V327C776.358 331.507 774.565 335.828 771.378 339.015C768.191 342.202 763.87 343.995 759.363 344V344Z" fill="#3F3D56"/>
<path id="Vector_3" d="M776.036 32.5754H273.036V34.5754H776.036V32.5754Z" fill="#3F3D56"/>
<path id="Vector_4" d="M292.036 25.5354C295.35 25.5354 298.036 22.8491 298.036 19.5354C298.036 16.2217 295.35 13.5354 292.036 13.5354C288.723 13.5354 286.036 16.2217 286.036 19.5354C286.036 22.8491 288.723 25.5354 292.036 25.5354Z" fill="#3F3D56"/>
<path id="Vector_5" d="M309.286 25.5354C312.6 25.5354 315.286 22.8491 315.286 19.5354C315.286 16.2217 312.6 13.5354 309.286 13.5354C305.973 13.5354 303.286 16.2217 303.286 19.5354C303.286 22.8491 305.973 25.5354 309.286 25.5354Z" fill="#3F3D56"/>
<path id="Vector_6" d="M326.536 25.5354C329.85 25.5354 332.536 22.8491 332.536 19.5354C332.536 16.2217 329.85 13.5354 326.536 13.5354C323.223 13.5354 320.536 16.2217 320.536 19.5354C320.536 22.8491 323.223 25.5354 326.536 25.5354Z" fill="#3F3D56"/>
<path id="Vector_7" d="M677.863 101H367.863C363.752 101 359.81 99.367 356.903 96.4601C353.996 93.5533 352.363 89.6109 352.363 85.5C352.363 81.3891 353.996 77.4466 356.903 74.5398C359.81 71.633 363.752 70 367.863 70H677.863C681.974 70 685.917 71.633 688.823 74.5398C691.73 77.4466 693.363 81.3891 693.363 85.5C693.363 89.6109 691.73 93.5533 688.823 96.4601C685.917 99.367 681.974 101 677.863 101ZM367.863 72C364.283 72 360.849 73.4223 358.317 75.954C355.786 78.4858 354.363 81.9196 354.363 85.5C354.363 89.0804 355.786 92.5142 358.317 95.0459C360.849 97.5777 364.283 99 367.863 99H677.863C681.444 99 684.877 97.5777 687.409 95.0459C689.941 92.5142 691.363 89.0804 691.363 85.5C691.363 81.9196 689.941 78.4858 687.409 75.954C684.877 73.4223 681.444 72 677.863 72H367.863Z" fill="#3F3D56"/>
<path id="Vector_8" d="M249.363 293.58C248.607 293.421 247.836 293.34 247.063 293.34C245.612 293.339 244.175 293.625 242.833 294.18C242.381 294.368 241.943 294.588 241.523 294.84L196.783 274.76L195.523 262.62L176.233 262.11L176.363 282.31C176.387 284.65 177.164 286.919 178.58 288.782C179.996 290.645 181.975 292.001 184.223 292.65L236.543 307.54C236.663 307.92 236.773 308.25 236.903 308.56C237.498 309.99 238.388 311.277 239.515 312.339C240.642 313.401 241.981 314.212 243.443 314.72C244.609 315.132 245.837 315.342 247.073 315.34C247.843 315.342 248.611 315.258 249.363 315.09C249.794 314.999 250.219 314.879 250.633 314.73V293.93C250.217 293.789 249.793 293.672 249.363 293.58Z" fill="#A0616A"/>
<path id="Vector_9" d="M127.046 504.226H139.306L145.138 456.938H127.044L127.046 504.226Z" fill="#A0616A"/>
<path id="Vector_10" d="M162.95 515.609L124.42 515.61L124.419 500.724L148.063 500.722C152.011 500.722 155.798 502.291 158.59 505.082C161.382 507.874 162.95 511.66 162.95 515.609V515.609V515.609Z" fill="#2F2E41"/>
<path id="Vector_11" d="M63.321 491.01L74.591 495.837L98.572 454.666L81.94 447.541L63.321 491.01Z" fill="#A0616A"/>
<path id="Vector_12" d="M91.8429 515.61L56.4243 500.44L62.2856 486.756L84.0198 496.065C87.6491 497.619 90.5123 500.552 91.9794 504.217C93.4465 507.883 93.3974 511.981 91.8429 515.61L91.8429 515.61Z" fill="#2F2E41"/>
<path id="Vector_13" d="M157.358 197.992C170.923 197.992 181.919 186.996 181.919 173.431C181.919 159.867 170.923 148.87 157.358 148.87C143.793 148.87 132.797 159.867 132.797 173.431C132.797 186.996 143.793 197.992 157.358 197.992Z" fill="#A0616A"/>
<path id="Vector_14" d="M139.614 492.665L126.118 490.094C125.008 489.888 124.017 489.272 123.343 488.367C122.67 487.462 122.362 486.336 122.483 485.215L131.433 397.956C131.518 397.123 131.302 396.288 130.825 395.601C130.347 394.913 129.639 394.42 128.829 394.21C128.019 394.001 127.16 394.088 126.409 394.457C125.658 394.825 125.063 395.451 124.734 396.22L85.6624 487.387C85.4276 487.935 85.0862 488.431 84.6583 488.846C84.2303 489.26 83.7242 489.586 83.1694 489.804C82.6146 490.021 82.022 490.126 81.4262 490.113C80.8304 490.1 80.2432 489.968 79.6986 489.726L68.7218 484.847C67.697 484.396 66.8781 483.578 66.4263 482.554C65.9744 481.53 65.9223 480.373 66.2801 479.312L93.0023 399.145C93.0775 398.92 93.1295 398.687 93.1575 398.451L101.832 325.204C101.926 324.404 102.234 323.645 102.722 323.004C103.21 322.364 103.861 321.866 104.607 321.563L131.995 310.437C132.805 310.108 133.694 310.022 134.552 310.19C135.411 310.357 136.202 310.772 136.828 311.382L171.399 345.043C171.937 345.565 172.336 346.214 172.559 346.93C172.782 347.647 172.821 348.408 172.673 349.143L144.87 489.121C144.664 490.141 144.112 491.059 143.307 491.719C142.502 492.38 141.494 492.742 140.453 492.744C140.171 492.744 139.89 492.718 139.614 492.665V492.665Z" fill="#2F2E41"/>
<path id="Vector_15" d="M124.228 329.243C119.443 323.703 115.951 321.188 113.563 321.585C111.193 321.967 109.826 325.278 108.379 328.783C106.403 333.567 104.164 338.99 98.6444 339.414C97.7851 339.561 96.9015 339.464 96.0948 339.134C95.288 338.803 94.5906 338.252 94.0821 337.544C89.7406 331.087 100.154 309.719 101.106 307.799L100.617 206.739C100.611 205.923 100.826 205.122 101.241 204.42C101.655 203.717 102.253 203.141 102.97 202.754C131.587 187.322 170.227 214.16 177.682 219.698C178.279 220.14 178.757 220.722 179.073 221.394C179.389 222.066 179.533 222.805 179.493 223.546C178.593 240.472 174.106 325.867 174.106 344.916C174.106 350.189 172.287 353.54 168.7 354.874C167.489 355.303 166.21 355.513 164.925 355.493C153.98 355.493 136.052 342.934 124.228 329.243Z" fill="#CCCCCC"/>
<path id="Vector_16" d="M164.164 280.171C163.565 279.782 163.069 279.255 162.717 278.634C162.365 278.014 162.168 277.317 162.141 276.604L160.203 231.339C160.083 228.552 160.959 225.813 162.674 223.613C164.389 221.413 166.831 219.896 169.563 219.331C172.294 218.767 175.138 219.193 177.584 220.534C180.03 221.874 181.92 224.041 182.914 226.647L197.422 264.664C197.846 265.779 197.81 267.017 197.323 268.106C196.836 269.195 195.936 270.046 194.822 270.473L168.241 280.616C167.575 280.874 166.858 280.968 166.148 280.891C165.439 280.813 164.758 280.566 164.164 280.171V280.171Z" fill="#CCCCCC"/>
<path id="Vector_17" d="M96.6164 350.899C95.3133 350.022 94.2182 348.87 93.4083 347.525C92.5984 346.179 92.0933 344.673 91.9288 343.111C91.7642 341.549 91.9441 339.97 92.4557 338.485C92.9674 337 93.7984 335.646 94.8902 334.517L90.2 229.612L113.402 232.344L110.708 334.725C112.483 336.685 113.478 339.228 113.503 341.872C113.529 344.516 112.583 347.078 110.846 349.071C109.109 351.065 106.701 352.352 104.078 352.689C101.456 353.026 98.8008 352.389 96.6164 350.899H96.6164Z" fill="#A0616A"/>
<path id="Vector_18" d="M80.5053 257.547C80.0847 256.97 79.8089 256.301 79.7013 255.595C79.5936 254.89 79.6572 254.169 79.8866 253.493L94.2142 210.511C95.0962 207.864 96.8912 205.618 99.2778 204.174C101.664 202.73 104.487 202.182 107.241 202.629C109.994 203.076 112.499 204.488 114.306 206.613C116.114 208.737 117.106 211.436 117.106 214.225V254.916C117.105 256.109 116.63 257.253 115.787 258.096C114.943 258.94 113.799 259.414 112.606 259.416H84.1559C83.4421 259.42 82.7379 259.252 82.1026 258.927C81.4672 258.601 80.9194 258.128 80.5053 257.547Z" fill="#CCCCCC"/>
<path id="Vector_19" d="M141.497 189.951C140.578 190.672 139.429 191.036 138.262 190.978C137.096 190.92 135.989 190.443 135.146 189.635C129.882 184.714 125.439 178.831 123.191 172.017C120.615 164.209 121.273 155.064 126.207 148.487C130.377 142.927 136.979 139.785 143.481 137.33C146.019 136.256 148.701 135.56 151.441 135.262C154.209 134.975 156.982 135.754 159.195 137.44C160.274 138.301 161.068 139.468 161.474 140.787C161.88 142.107 161.879 143.518 161.471 144.837C164.805 141.808 168.874 139.704 173.272 138.732C176.056 137.994 178.999 138.116 181.712 139.082C185.483 140.632 187.933 144.42 189.062 148.338C189.995 151.327 190.071 154.518 189.28 157.547C188.874 159.053 188.156 160.458 187.173 161.669C186.19 162.88 184.964 163.872 183.574 164.58C180.124 166.205 176.03 165.591 172.422 164.354C168.815 163.117 165.395 161.291 161.664 160.502C157.933 159.712 153.625 160.173 150.984 162.925C149.125 164.863 148.393 167.589 147.728 170.191L144.269 183.725C143.888 185.697 143.157 187.584 142.113 189.299C141.938 189.543 141.731 189.763 141.497 189.951Z" fill="#2F2E41"/>
<path id="Vector_20" d="M309.153 273.43V319.59L309.783 320.05V273.5C309.575 273.462 309.365 273.439 309.153 273.43V273.43ZM376.123 243.23L344.203 220.06C341.879 218.381 338.984 217.69 336.153 218.14C333.321 218.59 330.783 220.143 329.093 222.46L310.423 248.2L309.153 249.94V349.19C309.15 351.719 308.144 354.144 306.356 355.932C304.567 357.721 302.143 358.727 299.613 358.73H294.314L297.383 359.35C298.09 359.498 298.811 359.572 299.533 359.57C301.242 359.57 302.926 359.166 304.448 358.391C305.971 357.615 307.288 356.491 308.294 355.11L309.593 353.31L378.523 258.33C380.201 256.007 380.89 253.114 380.44 250.285C379.99 247.455 378.438 244.918 376.123 243.23V243.23ZM377.493 257.58L310.383 350.05L309.673 351.03L309.603 351.13C309.724 350.49 309.785 349.841 309.783 349.19V251.24L310.423 250.36L330.133 223.21C331.622 221.167 333.859 219.797 336.355 219.4C338.852 219.002 341.404 219.61 343.453 221.09L375.373 244.26C377.417 245.748 378.788 247.985 379.186 250.482C379.583 252.979 378.975 255.531 377.493 257.58V257.58Z" fill="#CCCCCC"/>
<path id="Vector_21" d="M343.551 281.879C341.763 281.879 340.022 281.311 338.577 280.256L320.64 267.24C318.818 265.914 317.595 263.919 317.242 261.694C316.888 259.468 317.431 257.193 318.753 255.368L331.77 237.43C333.094 235.606 335.088 234.382 337.315 234.028C339.541 233.674 341.817 234.219 343.641 235.543L361.579 248.56C363.401 249.885 364.623 251.88 364.977 254.105C365.331 256.331 364.787 258.606 363.466 260.431L350.449 278.369C349.796 279.274 348.969 280.041 348.017 280.626C347.066 281.21 346.007 281.599 344.904 281.771C344.457 281.843 344.004 281.879 343.551 281.879V281.879Z" fill="#CCCCCC"/>
<path id="Vector_22" opacity="0.5" d="M315.065 323.187C313.89 323.187 312.746 322.814 311.797 322.121L308.652 319.84V272.897L309.181 272.929C309.655 272.957 310.123 273.043 310.576 273.187C311.14 273.365 311.672 273.635 312.15 273.984L334.798 290.425C335.392 290.856 335.895 291.4 336.278 292.025C336.662 292.651 336.919 293.346 337.033 294.07C337.148 294.795 337.119 295.535 336.948 296.249C336.777 296.962 336.467 297.635 336.035 298.228L319.6 320.877C319.171 321.473 318.629 321.977 318.004 322.361C317.379 322.745 316.685 323.001 315.96 323.115C315.664 323.162 315.365 323.186 315.065 323.187V323.187Z" fill="#E6E6E6"/>
<path id="Vector_23" d="M299.613 218.8H260.173C257.307 218.804 254.56 219.944 252.533 221.97C250.507 223.997 249.367 226.744 249.363 229.61V349.19C249.367 352.056 250.507 354.804 252.533 356.83C254.56 358.857 257.307 359.997 260.173 360H299.613C301.752 359.997 303.842 359.36 305.618 358.169C307.395 356.978 308.778 355.287 309.593 353.31C309.853 352.697 310.054 352.061 310.193 351.41C310.287 350.961 310.35 350.507 310.383 350.05C310.412 349.764 310.425 349.477 310.423 349.19V229.61C310.42 226.744 309.28 223.997 307.253 221.97C305.227 219.944 302.479 218.804 299.613 218.8V218.8ZM309.153 349.19C309.15 351.719 308.144 354.144 306.356 355.932C304.567 357.721 302.143 358.727 299.613 358.73H260.173C257.644 358.727 255.219 357.721 253.431 355.933C251.642 354.144 250.636 351.719 250.633 349.19V229.61C250.636 227.081 251.642 224.656 253.431 222.867C255.219 221.079 257.644 220.073 260.173 220.07H299.613C302.143 220.073 304.567 221.079 306.356 222.868C308.144 224.656 309.15 227.081 309.153 229.61V349.19Z" fill="#3F3D56"/>
<g id="colored">
<path id="Vector_24" d="M675.863 180H615.863C611.752 180 607.81 178.367 604.903 175.46C601.996 172.553 600.363 168.611 600.363 164.5C600.363 160.389 601.996 156.447 604.903 153.54C607.81 150.633 611.752 149 615.863 149H675.863C679.974 149 683.917 150.633 686.823 153.54C689.73 156.447 691.363 160.389 691.363 164.5C691.363 168.611 689.73 172.553 686.823 175.46C683.917 178.367 679.974 180 675.863 180V180Z" fill="#00C6A7"/>
<path id="Vector_25" d="M675.863 232H615.863C611.752 232 607.81 230.367 604.903 227.46C601.996 224.553 600.363 220.611 600.363 216.5C600.363 212.389 601.996 208.447 604.903 205.54C607.81 202.633 611.752 201 615.863 201H675.863C679.974 201 683.917 202.633 686.823 205.54C689.73 208.447 691.363 212.389 691.363 216.5C691.363 220.611 689.73 224.553 686.823 227.46C683.917 230.367 679.974 232 675.863 232V232Z" fill="#00C6A7"/>
<path id="Vector_26" d="M675.863 284H615.863C611.752 284 607.81 282.367 604.903 279.46C601.996 276.553 600.363 272.611 600.363 268.5C600.363 264.389 601.996 260.447 604.903 257.54C607.81 254.633 611.752 253 615.863 253H675.863C679.974 253 683.917 254.633 686.823 257.54C689.73 260.447 691.363 264.389 691.363 268.5C691.363 272.611 689.73 276.553 686.823 279.46C683.917 282.367 679.974 284 675.863 284V284Z" fill="#00C6A7"/>
<path id="Vector_27" d="M290.975 270.817H268.812C266.559 270.815 264.398 269.918 262.805 268.325C261.211 266.731 260.315 264.571 260.312 262.317V240.154C260.315 237.901 261.211 235.74 262.805 234.147C264.398 232.553 266.559 231.657 268.812 231.654H290.975C293.229 231.657 295.389 232.553 296.983 234.147C298.576 235.74 299.472 237.901 299.475 240.154V262.317C299.472 264.571 298.576 266.731 296.983 268.325C295.389 269.918 293.229 270.815 290.975 270.817V270.817Z" fill="#00C6A7"/>
</g>
<path id="Vector_28" opacity="0.5" d="M290.975 320.429H268.812C266.559 320.427 264.398 319.53 262.805 317.937C261.211 316.343 260.315 314.183 260.312 311.929V289.766C260.315 287.513 261.211 285.352 262.805 283.759C264.398 282.165 266.559 281.269 268.812 281.266H290.975C293.229 281.269 295.389 282.165 296.983 283.759C298.576 285.352 299.472 287.513 299.475 289.766V311.929C299.472 314.183 298.576 316.343 296.983 317.937C295.389 319.53 293.229 320.427 290.975 320.429Z" fill="#00C6A7"/>
<path id="Vector_29" d="M279.894 331.38C278.258 331.38 276.659 331.865 275.299 332.773C273.939 333.682 272.879 334.974 272.253 336.485C271.627 337.996 271.463 339.659 271.782 341.263C272.101 342.867 272.889 344.341 274.045 345.497C275.202 346.654 276.675 347.442 278.28 347.761C279.884 348.08 281.547 347.916 283.058 347.29C284.569 346.664 285.861 345.605 286.769 344.245C287.678 342.885 288.163 341.286 288.163 339.65C288.16 337.457 287.288 335.356 285.738 333.805C284.188 332.255 282.086 331.383 279.894 331.38V331.38ZM279.894 346.64C278.51 346.639 277.158 346.228 276.008 345.458C274.858 344.689 273.963 343.596 273.434 342.317C272.906 341.039 272.768 339.632 273.039 338.275C273.31 336.919 273.977 335.673 274.956 334.695C275.935 333.718 277.182 333.052 278.539 332.783C279.896 332.514 281.302 332.654 282.58 333.184C283.858 333.715 284.95 334.612 285.717 335.763C286.485 336.914 286.895 338.266 286.894 339.65C286.889 341.504 286.15 343.281 284.838 344.592C283.526 345.902 281.748 346.638 279.894 346.64V346.64Z" fill="#3F3D56"/>
<path id="Vector_30" d="M258.384 516.128H9.09029C8.77509 516.127 8.47312 516.001 8.25056 515.778C8.02801 515.555 7.90305 515.252 7.90305 514.937C7.90305 514.622 8.02801 514.32 8.25056 514.096C8.47312 513.873 8.77509 513.747 9.09029 513.746H258.384C258.699 513.747 259.001 513.873 259.224 514.096C259.447 514.32 259.572 514.622 259.572 514.937C259.572 515.252 259.447 515.555 259.224 515.778C259.001 516.001 258.699 516.127 258.384 516.128V516.128Z" fill="#3F3D56"/>
</g>
<defs>
<clipPath id="clip0_7_178">
<rect width="776.363" height="516.128" fill="white"/>
</clipPath>
</defs>
</svg>
